<?xml version="1.0" encoding="UTF-8" standalone="no"?>
<!-- Generator: Adobe Illustrator 17.1.0, SVG Export Plug-In . SVG Version: 6.00 Build 0)  -->

<svg
   version="1.1"
   id="Layer_1"
   x="0px"
   y="0px"
   viewBox="0.6 1067.9 90.3 109.1"
   enable-background="new 0.6 1067.9 90.3 109.1"
   xml:space="preserve"
   sodipodi:docname="logo-icon.svg"
   inkscape:version="1.2.2 (732a01da63, 2022-12-09, custom)"
   xmlns:inkscape="http://www.inkscape.org/namespaces/inkscape"
   xmlns:sodipodi="http://sodipodi.sourceforge.net/DTD/sodipodi-0.dtd"
   xmlns="http://www.w3.org/2000/svg"
   xmlns:svg="http://www.w3.org/2000/svg"><defs
   id="defs17129" /><sodipodi:namedview
   id="namedview17127"
   pagecolor="#ffffff"
   bordercolor="#000000"
   borderopacity="0.25"
   inkscape:showpageshadow="2"
   inkscape:pageopacity="0.0"
   inkscape:pagecheckerboard="0"
   inkscape:deskcolor="#d1d1d1"
   showgrid="false"
   inkscape:zoom="13.325496"
   inkscape:cx="-2.626544"
   inkscape:cy="47.690534"
   inkscape:window-width="3768"
   inkscape:window-height="2096"
   inkscape:window-x="1992"
   inkscape:window-y="27"
   inkscape:window-maximized="1"
   inkscape:current-layer="Layer_1" />

<g
   id="g17454"
   transform="matrix(1.2285161,0,0,1.2285161,57.372018,-219.62565)"
   style="fill:#ee4c2c;fill-opacity:1"><g
     id="g8227"
     transform="translate(-46.705861,506.57242)"
     style="display:inline;stroke:none;stroke-width:0.1;stroke-dasharray:none;stroke-opacity:1;fill:#ee4c2c;fill-opacity:1">
	<path
   id="path10240"
   style="display:none;stroke:none;stroke-width:0.1;stroke-dasharray:none;stroke-opacity:1;fill:#ee4c2c;fill-opacity:1"
   d="M 37.025341,630.08216 V 620.797 c -1.61721,-1.3e-4 -3.234027,-0.14359 -4.828125,-0.42969 v 9.36133 c 1.601916,0.22865 3.215438,0.33833 4.828125,0.35352 z" /><path
   id="path8223"
   style="display:inline;stroke:none;stroke-width:0.1;stroke-dasharray:none;stroke-opacity:1;fill:#ee4c2c;fill-opacity:1"
   d="m 32.197216,629.72864 v -9.36133 c -1.663037,-0.29846 -3.302079,-0.74947 -4.894531,-1.35937 v 9.67969 c 1.61114,0.46085 3.247454,0.80592 4.894531,1.04101 z" /><path
   id="path10235"
   style="display:none;stroke:none;stroke-width:0.1;stroke-dasharray:none;stroke-opacity:1;fill:#ee4c2c;fill-opacity:1"
   d="m 22.482372,616.57239 v 10.34766 c 1.574426,0.70132 3.18291,1.29921 4.820313,1.76758 v -9.67969 c -1.668087,-0.63887 -3.281901,-1.4549 -4.820313,-2.43555 z" /><path
   id="path10250"
   style="display:inline;stroke:none;stroke-width:0.1;stroke-dasharray:none;stroke-opacity:1;fill:#ee4c2c;fill-opacity:1"
   d="m 17.621044,612.61731 v 11.67578 c 1.568872,1.00292 3.19225,1.88347 4.861328,2.62696 v -10.34766 c -1.70094,-1.08425 -3.309118,-2.37114 -4.783203,-3.87305 -0.02687,-0.0269 -0.05139,-0.0551 -0.07813,-0.082 z" /><path
   id="path10245"
   style="display:inline;fill:#ee4c2c;fill-opacity:1;stroke:none;stroke-width:0.1;stroke-dasharray:none;stroke-opacity:1"
   d="m 63.09956,567.30091 -6.59961,6.59961 c 10.799956,10.79992 10.799956,28.19886 0,38.79882 -5.399833,5.39985 -12.449358,8.09821 -19.474609,8.09766 v 9.28516 c 9.475512,0.0892 18.939223,-3.49446 26.074219,-10.78125 14.39994,-14.49996 14.39994,-37.60008 0,-52 z" /><path
   id="path10255"
   style="fill:#ee4c2c;fill-opacity:1;stroke:none;stroke-width:0.1;stroke-dasharray:none;stroke-opacity:1"
   d="m 17.640575,561.06067 -6.240234,6.24024 c -14.3999432,14.39992 -14.3999432,37.60004 0,52 1.928055,1.92805 4.018934,3.58468 6.220703,4.99218 V 612.61731 C 6.9216363,601.83179 6.9278051,584.5401 17.640575,573.96106 Z" /><path
   id="path10198"
   style="display:none;stroke:none;stroke-width:0.1;stroke-dasharray:none;stroke-opacity:1;fill:#ee4c2c;fill-opacity:1"
   d="m 22.492138,569.10755 v -12.89844 l -4.851563,4.85156 v 12.90039 c 0.02009,-0.0198 0.03843,-0.0408 0.05859,-0.0605 z" /><path
   id="path10219"
   style="stroke:none;stroke-width:0.1;stroke-dasharray:none;stroke-opacity:1;fill:#ee4c2c;fill-opacity:1"
   d="m 27.345653,564.25403 v -12.89844 l -4.853515,4.85352 v 12.89844 z" /><path
   id="path10224"
   style="display:none;stroke:none;stroke-width:0.1;stroke-dasharray:none;stroke-opacity:1;fill:#ee4c2c;fill-opacity:1"
   d="m 32.319187,559.27573 v -12.90039 l -4.873047,4.87304 v 12.89844 z" /><path
   id="path10229"
   style="stroke:none;stroke-width:0.1;stroke-dasharray:none;stroke-opacity:1;fill:#ee4c2c;fill-opacity:1"
   d="m 37.199169,541.50013 -4.980469,4.98242 v 12.90039 l 2.582031,-2.58203 2.398438,-2.40039 z" />
	<circle
   fill="#ee4c2c"
   cx="50.200001"
   cy="560.90002"
   r="4.8000002"
   id="circle8225"
   style="stroke:none;stroke-width:0.1;stroke-dasharray:none;stroke-opacity:1;fill:#ee4c2c;fill-opacity:1" />
</g><g
     id="g10205"
     style="stroke:none;fill:#ee4c2c;fill-opacity:1"
     transform="translate(-46.675051,506.56317)"><path
       style="fill:#ee4c2c;fill-opacity:1;stroke:none;stroke-width:0.1;stroke-linecap:square;stroke-linejoin:round;stroke-dasharray:none;stroke-opacity:1"
       d="m 40.042149,586.48732 9.7275,-9.73147 3.638872,3.63898 -9.727968,9.73195 z"
       id="path9027"
       sodipodi:nodetypes="ccccc" /><path
       style="fill:#ee4c2c;fill-opacity:1;stroke:none;stroke-width:0.1;stroke-linecap:square;stroke-linejoin:round;stroke-dasharray:none;stroke-opacity:1"
       d="m 43.705284,596.23812 9.738659,9.72029 -3.636288,3.64157 -9.73914,-9.72077 z"
       id="path9027-9"
       sodipodi:nodetypes="ccccc" /><rect
       style="display:inline;fill:#ee4c2c;fill-opacity:1;stroke:none;stroke-width:0.1;stroke-linecap:square;stroke-linejoin:round;stroke-dasharray:none;stroke-opacity:1"
       id="rect8858"
       width="9.6031599"
       height="9.6023045"
       x="-398.15421"
       y="440.70865"
       transform="rotate(-45.014935,-0.00423951,0.04180284)" /></g></g></svg>
