<?xml version="1.0" encoding="UTF-8"?>
<!-- Generator: Adobe Illustrator 17.1.0, SVG Export Plug-In . SVG Version: 6.00 Build 0)  -->
<svg width="710.65" height="116.58" enable-background="new 0.6 539.9 487.3 120.2" version="1.1" viewBox=".6 539.9 710.65 116.58" xml:space="preserve" xmlns="http://www.w3.org/2000/svg">
<g transform="translate(-.0003836 -1.6001)" fill="#ee4c2c">
	<path d="m37.025 630.08v-9.2852c-1.6172-1.3e-4 -3.234-0.14359-4.8281-0.42969v9.3613c1.6019 0.22865 3.2154 0.33833 4.8281 0.35352z" display="none"/><path d="m32.197 629.73v-9.3613c-1.663-0.29846-3.3021-0.74947-4.8945-1.3594v9.6797c1.6111 0.46085 3.2475 0.80592 4.8945 1.041z"/><path d="m22.482 616.57v10.348c1.5744 0.70132 3.1829 1.2992 4.8203 1.7676v-9.6797c-1.6681-0.63887-3.2819-1.4549-4.8203-2.4356z" display="none"/><path d="m17.621 612.62v11.676c1.5689 1.0029 3.1922 1.8835 4.8613 2.627v-10.348c-1.7009-1.0842-3.3091-2.3711-4.7832-3.873-0.02687-0.0269-0.05139-0.0551-0.07813-0.082z"/><path d="m63.1 567.3-6.5996 6.5996c10.8 10.8 10.8 28.199 0 38.799-5.3998 5.3998-12.449 8.0982-19.475 8.0977v9.2852c9.4755 0.0892 18.939-3.4945 26.074-10.781 14.4-14.5 14.4-37.6 0-52z"/><path d="m17.641 561.06-6.2402 6.2402c-14.4 14.4-14.4 37.6 0 52 1.9281 1.928 4.0189 3.5847 6.2207 4.9922v-11.676c-10.699-10.786-10.693-28.077 0.019531-38.656z"/><path d="m22.492 569.11v-12.898l-4.8516 4.8516v12.9c0.02009-0.0198 0.03843-0.0408 0.05859-0.0605z" display="none"/><path d="m27.346 564.25v-12.898l-4.8535 4.8535v12.898z"/><path d="m32.319 559.28v-12.9l-4.873 4.873v12.898z" display="none"/><path d="m37.199 541.5-4.9805 4.9824v12.9l2.582-2.582 2.3984-2.4004z"/>
	<circle cx="50.2" cy="560.9" r="4.8"/>
</g>

<g transform="translate(.030426 -1.6094)" stroke-linecap="square" stroke-linejoin="round"><g fill="#fff" stroke-width=".1059" aria-label="Py"><path d="m162.38 579.22q0 12.161-8.0286 18.3-7.9105 6.1395-21.724 6.3756l-10.036 0.11807v25.975h-7.5563v-73.792h18.537q7.3202 0 12.751 1.771 5.4311 1.6529 8.9731 4.7227 3.542 2.9517 5.313 7.2021 1.771 4.2504 1.771 9.3273zm-7.7924 0.3542q0-7.9105-5.4311-12.161t-15.821-4.2504h-10.744v33.885l10.508-0.23614q10.508-0.23613 15.939-4.3685 5.5491-4.2504 5.5491-12.869z"/><path d="m196.03 629.39-4.3685 11.689q-1.8891 4.9588-3.8962 8.2647-1.8891 3.3059-4.0143 5.195-2.1252 2.0071-4.4866 2.7155-2.3613 0.82647-5.0769 0.82647-3.0697 0-5.5492-0.70841-2.4794-0.7084-4.9588-1.771l2.2433-6.7298q2.0071 1.0626 4.0143 1.6529 2.0071 0.7084 4.2504 0.7084 1.5349 0 2.8336-0.59033 1.4168-0.47227 2.7155-1.8891 1.4168-1.2987 2.7155-3.7781 1.4168-2.3613 2.8336-6.2576l3.6601-9.5634-21.134-53.248h7.9105l17.002 44.629 16.647-44.629h7.6744z"/></g><g fill="#fff" stroke-width=".10816" aria-label="Torch"><path d="m258.61 563.21v66.708h-7.5563v-66.708h-25.975v-7.084h59.506v7.084z"/><path d="m329.71 591.07q2.0071 5.195 2.0071 11.689 0 6.4937-2.1252 11.807-2.0071 5.195-5.5492 8.9731-3.542 3.7782-8.3828 5.9034-4.8408 2.0071-10.508 2.0071-5.6672 0-10.508-2.0071-4.7227-2.0071-8.2647-5.6672-3.424-3.7782-5.4311-8.9731-1.8891-5.313-1.8891-11.807 0-6.4937 2.0071-11.689 2.1252-5.313 5.6672-9.0912 3.542-3.7781 8.3828-5.7853 4.9588-2.1252 10.626-2.1252 5.6672 0 10.39 2.0071 4.8408 2.0071 8.2647 5.7853 3.4239 3.6601 5.313 8.9731zm-5.1949 11.925q0-4.9588-1.4168-8.9731-1.2987-4.1323-3.8962-6.966-2.4794-2.9517-6.0214-4.4866-3.542-1.6529-7.7924-1.6529t-7.7924 1.6529q-3.542 1.5349-6.0214 4.4866-2.4794 2.9517-3.8962 6.966-1.2987 4.0143-1.2987 8.737 0 4.9588 1.2987 9.0912 1.4168 4.0143 3.8962 6.966 2.5975 2.8336 6.1395 4.4866 3.542 1.5349 7.7924 1.5349t7.7924-1.5349q3.542-1.6529 6.0214-4.6046 2.4794-2.9517 3.7781-6.8479 1.4168-4.0143 1.4168-8.855z"/><path d="m350.63 629.92h-7.3202v-54.075l7.3202-1.5349v11.571q2.7155-5.313 6.6118-8.3828 4.0143-3.1878 9.3273-3.1878 2.7155 0 5.0769 0.70841 2.4794 0.7084 4.3685 1.771l-1.8891 6.8479q-1.771-1.0626-3.8962-1.6529-2.0071-0.7084-4.3685-0.7084-4.2504 0-8.1466 3.3059-3.8962 3.3059-7.084 10.626z"/><path d="m421.85 626.85q-3.4239 2.1252-7.7924 3.3059-4.2504 1.2987-8.9731 1.2987-6.1395 0-11.098-2.0071-4.8408-2.1252-8.2647-5.9034-3.4239-3.7781-5.313-8.9731-1.771-5.313-1.771-11.571 0-6.3756 2.0071-11.571 2.0071-5.313 5.5492-9.0912t8.3828-5.9034q4.8407-2.1252 10.626-2.1252 4.9588 0 9.2092 1.1807t7.6744 3.424l-1.8891 6.6118q-3.0698-2.0071-6.966-3.1878-3.7781-1.1807-8.0286-1.1807-4.3685 0-7.9105 1.6529-3.542 1.5349-6.0214 4.3685t-3.7781 6.8479q-1.2987 3.8962-1.2987 8.737 0 4.9588 1.2987 8.9731 1.4168 4.0143 3.8962 6.966 2.5975 2.8336 6.1395 4.3685t7.7924 1.5349q4.1324 0 8.0286-1.1807 3.8962-1.2987 6.966-3.3059z"/><path d="m469.1 629.92v-34.948q0-7.084-2.8336-10.39-2.8336-3.3059-8.737-3.3059-4.7227 0-9.0912 2.1252-4.2504 2.1252-7.6744 5.5492v40.969h-7.3202v-79.577l7.3202-1.5349v34.121q4.2504-4.2504 9.2092-6.3756 5.0769-2.2433 9.5634-2.2433 7.9105 0 12.397 4.8408t4.4866 13.696v37.073z"/></g><g fill="#ee4c2c" stroke-width=".109" aria-label="Time"><path d="m522.12 563.18v66.708h-7.5563v-66.708h-25.975v-7.084h59.506v7.084z"/><path d="m566.07 557.99q0 2.1252-1.2987 3.7781-1.1807 1.6529-3.6601 1.6529-2.4794 0-3.7782-1.6529-1.1807-1.6529-1.1807-3.7781 0-2.0071 1.1807-3.542 1.2987-1.6529 3.7782-1.6529 2.4794 0 3.6601 1.6529 1.2987 1.5349 1.2987 3.542zm-8.6189 71.903v-54.075l7.3202-1.5349v55.61z"/><path d="m647.56 629.89v-34.83q0-7.084-2.8336-10.39-2.7155-3.4239-8.6189-3.4239-4.3685 0-8.2647 2.0071t-6.966 4.9588q0.11807 0.59034 0.11807 2.2433 0.11807 1.6529 0.11807 2.5975v36.837h-7.3202v-34.83q0-7.084-2.8336-10.39-2.7156-3.4239-8.6189-3.4239-4.2504 0-8.1466 1.771-3.7781 1.771-6.8479 4.4866v42.386h-7.3202v-54.075l7.3202-1.5349v7.4382q4.1324-3.7782 8.5008-5.5492 4.4865-1.8891 8.6189-1.8891 5.0769 0 8.855 2.2433 3.7781 2.2433 5.7853 6.7298 4.4865-4.4866 9.4454-6.7298 4.9588-2.2433 9.6815-2.2433 7.7924 0 12.161 4.8407 4.4866 4.8408 4.4866 13.814v36.955z"/><path d="m673.44 603.68q0.11807 4.6046 1.4168 8.5008 1.4168 3.7782 3.8962 6.6118 2.4794 2.7155 5.9034 4.2504 3.4239 1.5349 7.6744 1.5349 4.4866 0 8.5008-1.1807 4.1324-1.2987 7.2021-3.3059l1.4168 6.7298q-3.424 2.1252-7.9105 3.3059-4.3685 1.2987-9.4454 1.2987-5.9034 0-10.744-2.0071-4.7227-2.1252-8.1466-5.7853-3.424-3.7781-5.313-8.9731t-1.8891-11.334q0-6.3756 1.8891-11.689 2.0071-5.313 5.313-9.2092 3.4239-3.8962 8.0286-6.0214 4.7227-2.1252 10.272-2.1252 8.9731 0 14.286 5.4311 5.4311 5.313 5.4311 14.522 0 2.1252-0.3542 4.4866-0.23613 2.3613-0.82647 4.1323l-36.601 0.23613zm30.461-6.4937q0.11806-0.47226 0.11806-1.1807v-1.1807q0-6.2576-3.3059-10.036-3.3059-3.8962-9.6815-3.8962-3.6601 0-6.6118 1.2987-2.9517 1.2987-5.195 3.542-2.1252 2.2433-3.542 5.313-1.2987 2.9517-1.771 6.2576z"/></g></g><g transform="translate(.030426 -1.6094)" fill="#ee4c2c"><path d="m40.042 586.49 9.7275-9.7315 3.6389 3.639-9.728 9.732z"/><path d="m43.705 596.24 9.7387 9.7203-3.6363 3.6416-9.7391-9.7208z"/><rect transform="rotate(-45.015 -.0042395 .041803)" x="-398.15" y="440.71" width="9.6032" height="9.6023"/></g></svg>
