<?xml version="1.0" encoding="UTF-8"?>
<!-- Generator: Adobe Illustrator 17.1.0, SVG Export Plug-In . SVG Version: 6.00 Build 0)  -->
<svg enable-background="new 0.6 1067.9 90.3 109.1" version="1.1" viewBox=".6 1067.9 90.3 109.1" xml:space="preserve" xmlns="http://www.w3.org/2000/svg">

<g transform="matrix(1.2285 0 0 1.2285 57.372 -219.63)" fill="#ee4c2c"><g transform="translate(-46.706 506.57)">
	<path d="m37.025 630.08v-9.2852c-1.6172-1.3e-4 -3.234-0.14359-4.8281-0.42969v9.3613c1.6019 0.22865 3.2154 0.33833 4.8281 0.35352z" display="none"/><path d="m32.197 629.73v-9.3613c-1.663-0.29846-3.3021-0.74947-4.8945-1.3594v9.6797c1.6111 0.46085 3.2475 0.80592 4.8945 1.041z"/><path d="m22.482 616.57v10.348c1.5744 0.70132 3.1829 1.2992 4.8203 1.7676v-9.6797c-1.6681-0.63887-3.2819-1.4549-4.8203-2.4356z" display="none"/><path d="m17.621 612.62v11.676c1.5689 1.0029 3.1922 1.8835 4.8613 2.627v-10.348c-1.7009-1.0842-3.3091-2.3711-4.7832-3.873-0.02687-0.0269-0.05139-0.0551-0.07813-0.082z"/><path d="m63.1 567.3-6.5996 6.5996c10.8 10.8 10.8 28.199 0 38.799-5.3998 5.3998-12.449 8.0982-19.475 8.0977v9.2852c9.4755 0.0892 18.939-3.4945 26.074-10.781 14.4-14.5 14.4-37.6 0-52z"/><path d="m17.641 561.06-6.2402 6.2402c-14.4 14.4-14.4 37.6 0 52 1.9281 1.928 4.0189 3.5847 6.2207 4.9922v-11.676c-10.699-10.786-10.693-28.077 0.019531-38.656z"/><path d="m22.492 569.11v-12.898l-4.8516 4.8516v12.9c0.02009-0.0198 0.03843-0.0408 0.05859-0.0605z" display="none"/><path d="m27.346 564.25v-12.898l-4.8535 4.8535v12.898z"/><path d="m32.319 559.28v-12.9l-4.873 4.873v12.898z" display="none"/><path d="m37.199 541.5-4.9805 4.9824v12.9l2.582-2.582 2.3984-2.4004z"/>
	<circle cx="50.2" cy="560.9" r="4.8"/>
</g><g transform="translate(-46.675 506.56)"><path d="m40.042 586.49 9.7275-9.7315 3.6389 3.639-9.728 9.732z"/><path d="m43.705 596.24 9.7387 9.7203-3.6363 3.6416-9.7391-9.7208z"/><rect transform="rotate(-45.015 -.0042395 .041803)" x="-398.15" y="440.71" width="9.6032" height="9.6023"/></g></g></svg>
